<?xml version="1.0" encoding="UTF-8"?>
<!-- Generator: visioncortex VTracer 0.6.12 -->
<svg version="1.1" xmlns="http://www.w3.org/2000/svg" width="512" height="512" viewBox="0 0 512 512">
<rect width="512" height="512" fill="#FFFFFF"/>
<path d="M0 0 C4.41026006 2.45014448 7.08812558 5.30125117 9.375 9.875 C10.06398886 16.7874784 9.86089273 21.30161813 5.375 26.875 C4.35293815 29.39790669 4.2366475 30.48556494 5.15673828 33.07543945 C5.58196777 33.87167725 6.00719727 34.66791504 6.4453125 35.48828125 C6.68399048 35.9411853 6.68399048 35.9411853 7.8918457 38.2331543 C8.42253662 39.20808838 8.95322754 40.18302246 9.5 41.1875 C10.04551514 42.21077393 10.59103027 43.23404785 11.15307617 44.28833008 C15.41176269 52.22754311 19.83596091 60.07166106 24.30517578 67.89379883 C28.62962503 75.48363549 32.77442022 83.16278247 36.875 90.875 C42.5173388 101.48204776 48.33747179 111.97473718 54.27734375 122.41796875 C57.44611526 127.99015164 60.58012987 133.58085565 63.6875 139.1875 C63.92484863 139.61192383 63.92484863 139.61192383 65.12597656 141.75976562 C65.55491211 142.53642578 65.98384766 143.31308594 66.42578125 144.11328125 C66.80387939 144.79430908 67.18197754 145.47533691 67.5715332 146.17700195 C68.375 147.875 68.375 147.875 68.375 149.875 C69.035 149.875 69.695 149.875 70.375 149.875 C70.25125 149.029375 70.1275 148.18375 70 147.3125 C70.52089268 142.53765043 72.94726077 140.0984957 76.375 136.875 C78.83869532 135.64315234 80.5644501 135.70767658 83.3125 135.6875 C84.18777344 135.67332031 85.06304687 135.65914062 85.96484375 135.64453125 C88.375 135.875 88.375 135.875 91.375 137.875 C95.50961381 137.54463029 98.59348391 135.85637967 102.171875 133.84765625 C103.28788086 133.22479736 104.40388672 132.60193848 105.55371094 131.96020508 C106.74429532 131.28624326 107.93472208 130.61200291 109.125 129.9375 C110.34385342 129.25310365 111.56293026 128.56910505 112.78222656 127.88549805 C121.47014362 123.00283308 130.11676599 118.04514572 138.64282227 112.8840332 C139.85511294 112.17784612 141.09009282 111.50985568 142.33959961 110.87182617 C147.16126301 108.37127344 147.16126301 108.37127344 148.28515625 105.76171875 C148.33542969 105.03597656 148.38570313 104.31023437 148.4375 103.5625 C149.23176715 98.33069681 151.43781585 95.33972206 155.375 91.875 C159.61295656 89.24059457 164.52072361 89.20889003 169.375 89.875 C173.2818358 91.22060294 175.96511651 93.44409684 178.8125 96.4375 C181.02779689 101.31115315 181.15239838 105.60596653 180.375 110.875 C178.18973658 115.32646251 175.4355479 118.06385145 171.375 120.875 C168.12120845 121.95959718 166.46756827 121.69885706 163.109375 121.34765625 C158.03213532 121.32178603 158.03213532 121.32178603 155.40820312 123.53076172 C153.59884034 126.03988104 152.10186913 128.59406809 150.625 131.3125 C150.33419556 131.80709717 150.33419556 131.80709717 148.86254883 134.31005859 C147.62775038 136.41540231 146.40977197 138.53068807 145.20751953 140.65478516 C142.85028185 144.79706667 140.38289679 148.8675108 137.91235352 152.94287109 C136.0296475 156.05429313 134.16533348 159.1761238 132.3046875 162.30078125 C128.49751436 168.6836216 124.64520825 175.03826537 120.78250122 181.38757324 C109.17429577 200.46875708 97.71318106 219.63210849 86.375 238.875 C86.75205078 238.71386719 86.75205078 238.71386719 88.66015625 237.8984375 C92.15939484 236.57930008 94.6551893 236.48344098 98.375 236.875 C103.27575639 239.3253782 105.46882502 241.75842506 107.375 246.875 C107.38466797 247.42994141 107.38466797 247.42994141 107.43359375 250.23828125 C108.44884046 254.16025092 108.66125124 254.50206462 111.828125 256.5859375 C113.41343559 257.49809926 115.0138508 258.38429392 116.625 259.25 C118.43389636 260.27550808 120.24246959 261.30158626 122.05078125 262.328125 C123.04932129 262.88435547 124.04786133 263.44058594 125.07666016 264.01367188 C128.74065389 266.0813468 132.36294865 268.21181882 135.98046875 270.359375 C137.2893606 271.13497467 138.59827988 271.91052803 139.90722656 272.68603516 C140.55373169 273.06914856 141.20023682 273.45226196 141.86633301 273.84698486 C142.50856812 274.22747986 143.15080322 274.60797485 143.8125 275 C144.13095886 275.18871674 144.13095886 275.18871674 145.74255371 276.14373779 C147.57488011 277.22719574 149.41005683 278.30565731 151.24609375 279.3828125 C152.30755615 280.00816895 153.36901855 280.63352539 154.46264648 281.27783203 C157.07753543 282.71186703 159.53644907 283.96242258 162.375 284.875 C164.05389021 284.23974424 165.71916775 283.56813908 167.375 282.875 C173.00418371 282.42823939 176.56273777 282.63195372 181.375 285.875 C185.21079702 289.18977541 187.63915904 292.28991521 188.4375 297.375 C188.70720091 303.24848659 186.76208782 307.27451405 182.9375 311.6875 C178.32003133 315.62924155 174.89476321 316.33342927 168.91015625 316.18359375 C164.74502877 315.67659056 162.71161171 314.47755713 159.375 311.875 C156.94918852 308.7077684 155.375 305.96006882 155.375 301.875 C141.54191137 301.53128646 127.70857981 301.19835104 113.875 300.875 C112.85901356 300.8512455 111.84302711 300.827491 110.7962532 300.80301666 C79.98430887 300.08585394 49.19665207 299.54825982 18.375 299.875 C18.7771875 300.266875 18.7771875 300.266875 20.8125 302.25 C23.94180259 305.45562704 24.53754396 306.85113809 24.625 311.1875 C24.55969106 315.26277802 24.10260042 317.69279951 21.375 320.875 C20.36203857 321.29072266 19.34907715 321.70644531 18.30541992 322.13476562 C16.69589233 323.19775391 16.69589233 323.19775391 15.375 324.875 C14.42897948 329.52192415 14.55494553 334.18396873 14.61328125 338.90625 C14.61177837 340.30342944 14.60834723 341.70060802 14.60307312 343.09777832 C14.59874369 346.02345805 14.61556077 348.94803474 14.64770508 351.87353516 C14.68748947 355.62008524 14.67818716 359.36456746 14.65347004 363.11118317 C14.63927401 365.99555353 14.64938322 368.87944237 14.66698265 371.76377869 C14.67282475 373.14483998 14.67154137 374.5259507 14.66295815 375.90699768 C14.65495153 377.83844211 14.68277638 379.76993434 14.7121582 381.70117188 C14.71915237 382.79941284 14.72614655 383.89765381 14.73335266 385.0291748 C15.58363892 388.8003524 17.24961322 389.73932306 20.375 391.875 C23.43733723 395.81229073 24.51205073 399.92290031 24.375 404.875 C23.522962 409.35853978 21.94402217 412.71534481 18.5 415.75 C13.20695007 419.34927395 9.90287407 420.31082662 3.58984375 419.41796875 C-1.40093016 418.19448097 -4.97767725 415.19431607 -7.625 410.875 C-9.39266555 405.57200335 -9.3260976 400.627744 -7.25 395.4375 C-5.625 392.875 -5.625 392.875 -3.625 390.875 C-3.95889975 386.56082575 -5.84287929 383.22084303 -7.87109375 379.45703125 C-8.1974733 378.84739532 -8.52385284 378.2377594 -8.86012268 377.60964966 C-9.92114501 375.63205821 -10.99155145 373.65973096 -12.0625 371.6875 C-12.80315636 370.31280865 -13.54338829 368.93788855 -14.28320312 367.56274414 C-18.77621778 359.22532686 -23.32203845 350.91782686 -27.953125 342.65625 C-31.11128177 337.01985164 -34.22113127 331.35683128 -37.3371582 325.69708252 C-47.62701072 307.0120804 -57.97757569 288.35919313 -68.625 269.875 C-68.78355469 270.47828125 -68.94210938 271.0815625 -69.10546875 271.703125 C-70.62263455 276.90004653 -71.81924094 279.91760981 -76.625 282.875 C-79.70490345 284.41495173 -82.21242761 284.09877524 -85.625 283.875 C-86.7289209 283.3173999 -87.8328418 282.7597998 -88.97021484 282.18530273 C-92.625 280.875 -92.625 280.875 -95.74853516 281.81274414 C-96.79315918 282.42239014 -97.8377832 283.03203613 -98.9140625 283.66015625 C-99.49160278 283.9873616 -100.06914307 284.31456696 -100.66418457 284.65168762 C-102.54126338 285.72282625 -104.39465982 286.82920865 -106.25 287.9375 C-107.5401121 288.68291535 -108.83163052 289.42590179 -110.12451172 290.16650391 C-112.72795844 291.66293965 -115.32248065 293.17323668 -117.91015625 294.69677734 C-121.28568751 296.68222367 -124.68425145 298.62411511 -128.09375 300.55078125 C-131.6541122 302.56319872 -135.21193251 304.57933792 -138.7578125 306.6171875 C-139.43730957 307.0076123 -140.11680664 307.39803711 -140.81689453 307.80029297 C-145.52704119 310.59992376 -145.52704119 310.59992376 -146.3984375 313.046875 C-146.59695312 313.89765625 -146.79546875 314.7484375 -147 315.625 C-148.42107144 320.64950259 -149.69937194 323.37607064 -153.625 326.875 C-158.97744152 329.80114021 -163.68900534 330.41841469 -169.55078125 328.73046875 C-174.28635646 326.77737841 -176.91260162 324.06999084 -179.5625 319.625 C-181.06461232 314.32342711 -181.08064922 309.87908883 -178.64453125 304.8515625 C-175.98789356 300.77633186 -173.35278425 298.36337652 -168.625 296.875 C-166.81102981 297.00123696 -164.99849096 297.14899056 -163.1875 297.3125 C-160.4375 297.3737793 -160.4375 297.3737793 -157.625 296.875 C-155.82739258 295.09741211 -155.82739258 295.09741211 -154.26953125 292.65234375 C-153.67744873 291.73815674 -153.08536621 290.82396973 -152.4753418 289.88208008 C-151.864729 288.88974365 -151.25411621 287.89740723 -150.625 286.875 C-150.0060083 285.88588623 -149.3870166 284.89677246 -148.74926758 283.87768555 C-146.72315947 280.60067815 -144.73277394 277.30328556 -142.75 274 C-142.00605248 272.76638688 -141.2617408 271.53299332 -140.51708984 270.29980469 C-139.36376454 268.38950292 -138.21079918 266.47899074 -137.05923462 264.56762695 C-134.51993013 260.35298034 -131.96762239 256.14658794 -129.40625 251.9453125 C-121.36030838 238.74588478 -113.40805185 225.49521412 -105.53237915 212.19348145 C-99.31838354 201.69898592 -93.03727982 191.24992465 -86.625 180.875 C-87.30771973 180.95951416 -87.99043945 181.04402832 -88.69384766 181.13110352 C-89.59151855 181.23350342 -90.48918945 181.33590332 -91.4140625 181.44140625 C-92.30303223 181.54654541 -93.19200195 181.65168457 -94.10791016 181.76000977 C-97.75655428 181.9266937 -99.70788473 181.02810889 -102.625 178.875 C-105.61531689 175.39976686 -106.58869251 173.56738341 -106.83081055 168.95019531 C-107.23417656 165.35856459 -107.47075915 165.01390906 -110.35864258 162.41308594 C-111.56265623 161.70026722 -112.78458126 161.01714237 -114.01953125 160.359375 C-114.34718475 160.17010185 -114.34718475 160.17010185 -116.00531006 159.21226501 C-118.13528711 157.9895428 -120.28477542 156.80713441 -122.4375 155.625 C-123.90565983 154.79527512 -125.37237382 153.96298679 -126.83764648 153.12817383 C-129.03254061 151.8788189 -131.22859588 150.63214719 -133.43141174 149.39680481 C-137.68247125 147.0095446 -141.84445653 144.53078258 -145.953125 141.90234375 C-146.85442139 141.32967773 -147.75571777 140.75701172 -148.68432617 140.16699219 C-150.30653016 139.1271868 -151.91942808 138.07265883 -153.52075195 137.00097656 C-157.38093159 134.57485084 -158.75222362 133.71598484 -163.3984375 134.5625 C-164.46320313 134.995625 -165.52796875 135.42875 -166.625 135.875 C-171.93983786 136.59423113 -176.12226936 135.87682043 -180.625 132.875 C-184.39951832 128.92891266 -187.51082437 125.42787693 -187.69140625 119.80859375 C-187.371142 114.07295212 -185.82317415 109.87791023 -181.625 105.875 C-176.44666916 102.84616498 -172.46071435 102.31921768 -166.625 102.875 C-161.95554811 104.61459973 -158.77128617 107.0095627 -155.625 110.875 C-155.2254721 112.86283515 -154.88297673 114.86389107 -154.625 116.875 C-108.97108149 118.60418873 -63.3081428 119.06069527 -17.625 118.875 C-18.0271875 118.483125 -18.0271875 118.483125 -20.0625 116.5 C-23.15041535 113.33676964 -23.79912366 111.90738363 -23.9375 107.625 C-23.87772495 102.97749011 -22.7508769 100.4232927 -19.625 96.875 C-18.7656485 96.45085312 -17.906297 96.02670624 -17.02090454 95.58970642 C-14.625 93.875 -14.625 93.875 -13.99008179 91.14942932 C-13.98610382 90.04896774 -13.98212585 88.94850616 -13.97802734 87.81469727 C-13.97014694 87.19061226 -13.97014694 87.19061226 -13.93026733 84.03236389 C-13.93921786 82.6687024 -13.94947303 81.30504893 -13.9609375 79.94140625 C-13.95756893 78.54279661 -13.95271597 77.14418983 -13.94644165 75.74559021 C-13.93906952 72.81407811 -13.94978334 69.88332781 -13.97314453 66.9519043 C-14.00160834 63.19752759 -13.98524895 59.44493978 -13.95528221 55.69062901 C-13.93719462 52.80200274 -13.94297393 49.91379899 -13.95592117 47.02515984 C-13.95925263 45.64129359 -13.95517712 44.25738877 -13.94352341 42.87356758 C-13.93079773 40.93728514 -13.95364065 39.00086796 -13.97802734 37.06469727 C-13.98200531 35.96344009 -13.98598328 34.86218292 -13.99008179 33.72755432 C-14.83154251 29.94704781 -16.49333418 29.01293233 -19.625 26.875 C-22.69013799 22.9341083 -23.75321721 18.82967949 -23.625 13.875 C-22.59424116 8.03037805 -19.89522614 4.66704604 -15.34375 1.00390625 C-10.4778785 -2.19208662 -5.34339115 -1.6582938 0 0 Z M-14.625 8.875 C-17.09251239 12.57626859 -16.93221156 14.49723532 -16.625 18.875 C-16.0625 21.125 -16.0625 21.125 -14.625 22.875 C-10.70398742 25.18147799 -8.48415831 25.97693404 -3.9375 25.4375 C0.16342587 23.503101 1.5089905 21.99577098 3.375 17.875 C3.375 13.98053525 2.95343985 11.75422858 0.8125 8.5 C-4.39686665 5.0270889 -9.68681362 4.80825828 -14.625 8.875 Z M-3.625 94.875 C-3.356875 95.41125 -3.08875 95.9475 -2.8125 96.5 C-2.6165625 96.891875 -2.6165625 96.891875 -1.625 98.875 C-1.068125 99.761875 -0.51125 100.64875 0.0625 101.5625 C1.79530242 105.93576325 1.89064136 109.40221055 0.375 113.875 C-1.83802683 116.59625101 -4.48649825 118.30574913 -7.625 119.875 C-8.00050466 133.20741263 -8.33773784 146.54038144 -8.625 159.875 C-8.64151611 160.62545593 -8.65803223 161.37591187 -8.67504883 162.14910889 C-8.7684722 166.49516902 -8.83188047 170.8406708 -8.875 175.1875 C-8.89626953 176.24565918 -8.91753906 177.30381836 -8.93945312 178.39404297 C-8.94396484 179.3532666 -8.94847656 180.31249023 -8.953125 181.30078125 C-8.9624707 182.11973877 -8.97181641 182.93869629 -8.98144531 183.7824707 C-8.54192057 186.3627218 -7.61507404 187.24189139 -5.625 188.875 C4.10212491 186.51690911 10.00010644 173.78462663 15.0625 166.0625 C15.85181488 164.86372137 16.64120366 163.66499139 17.43066406 162.46630859 C19.00585981 160.07148797 20.57616756 157.67354376 22.14404297 155.27392578 C24.16557953 152.18479344 26.2226071 149.12051686 28.28515625 146.05859375 C29.39960036 144.37316416 30.51296589 142.68702066 31.625 141 C31.88454468 140.62049194 31.88454468 140.62049194 33.19799805 138.69995117 C33.65343994 137.99717041 34.10888184 137.29438965 34.578125 136.5703125 C34.97676758 135.97234863 35.37541016 135.37438477 35.78613281 134.75830078 C36.68308991 131.8896743 35.71260057 130.52815542 34.375 127.875 C31.92048316 123.43302013 29.27342427 119.13176311 26.55810547 114.84521484 C25.69136973 113.45694942 24.84395151 112.05642093 24.01708984 110.64404297 C16.76766056 98.29369895 16.76766056 98.29369895 10.19628906 96.27832031 C5.61676016 95.25621738 1.06659147 94.875 -3.625 94.875 Z M157.375 98.875 C154.70097284 102.88604074 154.44244026 106.16268487 155.375 110.875 C158.41833783 114.51215985 160.25391416 115.69798645 164.9375 116.4375 C168.89874737 115.78929589 170.56299374 114.68700626 173.375 111.875 C174.94955739 108.72588521 174.72299118 106.35491184 174.375 102.875 C172.0629749 99.20296014 170.54559045 97.29840506 166.4375 95.8125 C162.65476588 95.88969866 160.55100565 96.85390549 157.375 98.875 Z M-16.5625 101.9375 C-18.25835287 105.02993758 -18.05560657 107.43014741 -17.625 110.875 C-16.0625 112.875 -16.0625 112.875 -13.625 113.875 C-7.29772727 113.54772727 -7.29772727 113.54772727 -4.625 110.875 C-4.27185771 107.62609093 -4.34716922 105.49603352 -5.6875 102.5 C-7.625 100.875 -7.625 100.875 -11.125 100.4375 C-14.625 100.875 -14.625 100.875 -16.5625 101.9375 Z M-179.625 112.875 C-181.23449419 116.09398839 -181.07970546 119.38446689 -180.625 122.875 C-179.1875 125.8125 -179.1875 125.8125 -176.625 127.875 C-172.18602944 129.28288245 -168.8709559 129.5112328 -164.6875 127.375 C-162.06968453 124.20189034 -161.18754876 121.95347853 -160.625 117.875 C-161.82946054 114.19076777 -162.96123072 112.39902838 -166 110 C-171.81686035 107.50705985 -174.73515667 109.0964847 -179.625 112.875 Z M-57.05078125 139.02685547 C-60.50075232 139.2179908 -63.95027687 139.41408661 -67.39941406 139.61962891 C-68.88293328 139.70653098 -70.36666577 139.78986576 -71.85058594 139.86962891 C-74.00511623 139.9856127 -76.15874359 140.11270736 -78.3125 140.2421875 C-78.95380859 140.27884521 -78.95380859 140.27884521 -82.19921875 140.46435547 C-86.12259333 140.93464595 -89.20119543 141.51366968 -92.1105957 144.29541016 C-92.50335693 144.82956543 -92.89611816 145.3637207 -93.30078125 145.9140625 C-93.73583984 146.49414062 -94.17089844 147.07421875 -94.61914062 147.671875 C-95.05419922 148.27515625 -95.48925781 148.8784375 -95.9375 149.5 C-96.16469727 149.80550781 -96.16469727 149.80550781 -97.31445312 151.3515625 C-98.42802947 152.85196011 -99.52790942 154.36250619 -100.625 155.875 C-98.625 156.875 -98.625 156.875 -94.875 156.25 C-90.6237752 155.65590869 -88.24383912 156.43438757 -84.625 158.875 C-82.8125 160.5 -82.8125 160.5 -81.625 162.875 C-81.59933891 164.3071334 -81.5864521 165.73951854 -81.58203125 167.171875 C-81.28311219 170.00748206 -81.06618441 171.41484515 -79.07495117 173.49169922 C-76.82181248 174.99092064 -74.52921264 176.25700882 -72.125 177.5 C-70.30382056 178.51406962 -68.48355142 179.5297753 -66.6640625 180.546875 C-65.68985352 181.07861328 -64.71564453 181.61035156 -63.71191406 182.15820312 C-58.22240763 185.21120924 -52.87212779 188.49637867 -47.5 191.75 C-44.48660809 193.5600164 -41.47175757 195.36736584 -38.45214844 197.16699219 C-36.56640905 198.30625236 -34.69440441 199.46856027 -32.83691406 200.65332031 C-31.96518555 201.20342773 -31.09345703 201.75353516 -30.1953125 202.3203125 C-29.43234863 202.81289551 -28.66938477 203.30547852 -27.88330078 203.81298828 C-25.2639102 205.0448098 -23.48727679 205.15429143 -20.625 204.875 C-19.625 203.875 -19.625 203.875 -19.37890625 200.76953125 C-19.64827538 196.50665793 -20.76738123 193.35993715 -22.5625 189.5625 C-22.89733398 188.83192383 -23.23216797 188.10134766 -23.57714844 187.34863281 C-27.68154688 178.53164819 -32.04458541 169.83258549 -36.375 161.125 C-36.75034882 160.36867279 -37.12569763 159.61234558 -37.51242065 158.83309937 C-38.6023954 156.64147952 -39.69852774 154.45305895 -40.796875 152.265625 C-41.12275101 151.60994034 -41.44862701 150.95425568 -41.78437805 150.27870178 C-45.790857 142.34458909 -45.790857 142.34458909 -48.625 138.875 C-51.50325532 138.37547315 -54.12043257 138.89696116 -57.05078125 139.02685547 Z M77.9375 143.4375 C76.375 145.875 76.375 145.875 76.4375 149.5 C77.375 152.875 77.375 152.875 80.375 154.875 C85.5519158 155.41426206 85.5519158 155.41426206 88.1875 153.6875 C89.71318682 151.35882011 90.17177533 149.6524038 90.375 146.875 C89.39769781 144.16862471 88.96987555 143.17243778 86.375 141.875 C82.80999524 141.48749948 80.99019994 141.48064106 77.9375 143.4375 Z M96.375 147.875 C96.21773437 148.22433594 96.21773437 148.22433594 95.421875 149.9921875 C94.99390625 150.90226563 94.5659375 151.81234375 94.125 152.75 C93.70734375 153.65492188 93.2896875 154.55984375 92.859375 155.4921875 C91.20475818 158.14828292 90.31268844 158.90665085 87.375 159.875 C85.15625 160.140625 85.15625 160.140625 82.875 160.125 C82.1221875 160.13015625 81.369375 160.1353125 80.59375 160.140625 C78.375 159.875 78.375 159.875 76.40625 158.796875 C73.64251532 157.54256464 72.28574317 158.08913094 69.375 158.875 C67.60236745 159.72179136 65.86377535 160.64187045 64.15625 161.61328125 C63.15134521 162.18054932 62.14644043 162.74781738 61.11108398 163.33227539 C60.04317627 163.94449951 58.97526855 164.55672363 57.875 165.1875 C57.32332153 165.50037964 57.32332153 165.50037964 54.53149414 167.08374023 C52.25504189 168.37623981 49.98039203 169.67191884 47.70751953 170.97070312 C44.58874466 172.75286019 41.46523581 174.52635571 38.33984375 176.296875 C36.49711646 177.34325816 34.65465432 178.39010845 32.8125 179.4375 C31.97589844 179.91292236 31.13929688 180.38834473 30.27734375 180.87817383 C27.96900262 182.19792852 25.67013567 183.53243381 23.375 184.875 C22.6010791 185.32045166 21.8271582 185.76590332 21.02978516 186.22485352 C20.29937012 186.65854248 19.56895508 187.09223145 18.81640625 187.5390625 C18.49063599 187.73024658 18.49063599 187.73024658 16.84204102 188.69775391 C15.375 189.875 15.375 189.875 14.875 192.6875 C15.04 193.409375 15.205 194.13125 15.375 194.875 C20.85497065 198.2458727 25.92905919 198.57756295 32.1875 199 C33.21504395 199.07782715 34.24258789 199.1556543 35.30126953 199.23583984 C37.37341404 199.38991824 39.44601677 199.53796455 41.51904297 199.6796875 C43.94248954 199.84542158 46.36360251 200.02788862 48.78515625 200.21875 C61.30527148 201.1068764 73.83042737 200.97329985 86.375 200.875 C88.82275985 196.25795464 91.26005975 191.63576509 93.6796875 187.00390625 C95.29751769 183.90870243 96.94120693 180.83277766 98.6328125 177.77734375 C104.46162714 167.08195852 104.46162714 167.08195852 103.17578125 161.9609375 C102.91152344 161.27257812 102.64726562 160.58421875 102.375 159.875 C101.97667969 158.83601562 101.57835937 157.79703125 101.16796875 156.7265625 C99.96245787 153.74578919 98.69837861 150.80498955 97.375 147.875 C97.045 147.875 96.715 147.875 96.375 147.875 Z M-98.5625 163.9375 C-100.625 166.875 -100.625 166.875 -100.75 170 C-99.625 172.875 -99.625 172.875 -97.4375 174.875 C-94.625 175.875 -94.625 175.875 -91.4375 175.4375 C-88.625 173.875 -88.625 173.875 -87.0625 171.0625 C-86.625 167.875 -86.625 167.875 -87.625 165.0625 C-89.625 162.875 -89.625 162.875 -92.5 161.75 C-95.625 161.875 -95.625 161.875 -98.5625 163.9375 Z M-12.125 201.5625 C-14.06283507 205.84188579 -14.31967859 209.2523857 -13.625 213.875 C-11.86579219 218.17528577 -8.801396 221.74756655 -4.625 223.875 C0.30365128 224.80463179 4.17338674 224.40905034 8.75 222.375 C12.53067102 218.77436093 15.01164942 215.10820429 15.60546875 209.82421875 C15.34678218 204.890012 13.35245974 201.80991605 9.98828125 198.28515625 C7.17628168 195.8272099 4.67972876 195.08657764 1.0625 194.5 C-4.36084209 195.25674541 -8.41698735 197.5763864 -12.125 201.5625 Z M20.375 214.875 C19.73240766 221.16910957 21.57388106 225.49565575 24.25 231.125 C24.65347656 231.99688965 25.05695313 232.8687793 25.47265625 233.76708984 C29.03075151 241.36088623 32.9065024 248.77499212 36.8828125 256.15625 C38.62686693 259.41218247 40.27484963 262.69850816 41.8671875 266.03125 C42.26808594 266.86446777 42.66898438 267.69768555 43.08203125 268.55615234 C43.84371965 270.14990252 44.59429422 271.74902636 45.33203125 273.35400391 C47.88310344 278.66191874 47.88310344 278.66191874 50.05395508 279.60229492 C53.25538226 279.9784382 56.30161106 279.79801127 59.51953125 279.60546875 C60.20754318 279.56440506 60.89555511 279.52334137 61.60441589 279.48103333 C63.05784114 279.39240971 64.51107506 279.30059827 65.96411133 279.20581055 C68.16893728 279.06369648 70.37427563 278.93647304 72.58007812 278.81054688 C73.99745245 278.72225846 75.41477251 278.63309362 76.83203125 278.54296875 C78.11053955 278.46328857 79.38904785 278.3836084 80.70629883 278.30151367 C89.71158047 277.25458301 89.71158047 277.25458301 93.08764648 274.45458984 C93.46993408 273.92043457 93.85222168 273.3862793 94.24609375 272.8359375 C94.67470703 272.25585938 95.10332031 271.67578125 95.54492188 271.078125 C95.96322266 270.47484375 96.38152344 269.8715625 96.8125 269.25 C97.25787109 268.63898438 97.70324219 268.02796875 98.16210938 267.3984375 C99.24920775 265.90221607 100.31441067 264.39012762 101.375 262.875 C99.375 261.875 99.375 261.875 96.25 262.5625 C91.44005549 262.95039875 88.20496151 261.80690157 84.375 258.875 C82.57404889 255.92276505 82.25626475 253.88795017 82.3046875 250.47265625 C82.02389529 247.62104237 81.82177674 246.31784337 79.76660156 244.28076172 C77.40606559 242.79043706 75.00762961 241.53968632 72.5 240.3125 C70.591881 239.30431065 68.68572961 238.2923912 66.78125 237.27734375 C65.75386719 236.73964355 64.72648437 236.20194336 63.66796875 235.64794922 C58.2754582 232.74459723 53.03489795 229.59116702 47.78265381 226.44314575 C42.9895769 223.57118895 38.18170541 220.72406384 33.375 217.875 C32.63588379 217.4313208 31.89676758 216.9876416 31.13525391 216.53051758 C23.33093822 211.91906178 23.33093822 211.91906178 20.375 214.875 Z M-84.625 216.875 C-89.0290845 223.65562821 -92.81375051 230.68192025 -96.5 237.875 C-97.10585937 239.01195312 -97.71171875 240.14890625 -98.3359375 241.3203125 C-101.61859916 247.75134511 -103.67432377 251.81365968 -101.625 258.875 C-100.43359375 262.28125 -100.43359375 262.28125 -99.0625 265.375 C-98.60746094 266.4165625 -98.15242188 267.458125 -97.68359375 268.53125 C-97.33425781 269.3046875 -96.98492187 270.078125 -96.625 270.875 C-96.33496094 270.27945313 -96.04492188 269.68390625 -95.74609375 269.0703125 C-93.5948288 264.85773096 -91.58943717 261.51795811 -87.625 258.875 C-82.78679841 257.41228789 -79.96384264 258.22718576 -75.5546875 260.28125 C-72.30066927 261.28248638 -70.0620306 260.09357841 -67.08911133 258.60668945 C-66.1380249 258.07261475 -65.18693848 257.53854004 -64.20703125 256.98828125 C-63.12873047 256.38604736 -62.05042969 255.78381348 -60.93945312 255.16333008 C-59.77198265 254.50499089 -58.6046685 253.84637442 -57.4375 253.1875 C-56.23781435 252.5135881 -55.0379421 251.8400083 -53.83789062 251.16674805 C-51.98034139 250.12444058 -50.12306591 249.08166857 -48.26687622 248.03694153 C-44.57592331 245.96123229 -40.87426644 243.90693221 -37.15885925 241.87532043 C-35.41774667 240.92321719 -33.67894335 239.9668949 -31.94018555 239.01049805 C-29.76681656 237.81537718 -27.58999781 236.62650382 -25.40942383 235.44458008 C-24.42868896 234.90212646 -23.4479541 234.35967285 -22.4375 233.80078125 C-21.57769531 233.33067627 -20.71789062 232.86057129 -19.83203125 232.3762207 C-17.45528164 230.75955772 -16.0974992 229.33645988 -14.625 226.875 C-14.625 225.885 -14.625 224.895 -14.625 223.875 C-19.26545094 221.19781677 -23.34103163 220.30570773 -28.609375 219.9609375 C-29.37496735 219.90119247 -30.14055969 219.84144745 -30.92935181 219.77989197 C-33.41046498 219.59028274 -35.89244115 219.41953551 -38.375 219.25 C-40.08288728 219.12451549 -41.79073227 218.99845404 -43.49853516 218.87182617 C-57.19469673 217.87941067 -70.89645875 217.21511305 -84.625 216.875 Z M5.375 229.875 C1.0027374 232.54208019 -1.82790148 234.98320185 -4.875 239.1875 C-5.25503174 239.71037598 -5.63506348 240.23325195 -6.02661133 240.77197266 C-10.75500551 247.34095629 -15.22202996 254.08522504 -19.625 260.875 C-20.21104004 261.77798828 -20.79708008 262.68097656 -21.40087891 263.61132812 C-23.31569381 266.56991646 -25.22189148 269.53386978 -27.125 272.5 C-27.73690186 273.44858887 -28.34880371 274.39717773 -28.97924805 275.37451172 C-29.55328369 276.27443848 -30.12731934 277.17436523 -30.71875 278.1015625 C-30.97495117 278.50157471 -30.97495117 278.50157471 -32.27148438 280.52587891 C-33.67484069 282.96150201 -34.82297742 285.17659353 -35.625 287.875 C-34.35737462 290.57988434 -33.10652953 292.74902159 -31.4375 295.1875 C-31.2115918 295.53208252 -31.2115918 295.53208252 -30.06835938 297.27587891 C-28.60741976 299.48983369 -27.11888834 301.68316702 -25.625 303.875 C-24.60801594 305.38668042 -23.59108853 306.89839896 -22.57421875 308.41015625 C-13.59530181 321.66055403 -13.59530181 321.66055403 -9.76171875 322.5078125 C-8.62347656 322.67023438 -7.48523438 322.83265625 -6.3125 323 C-5.18199219 323.16757812 -4.05148438 323.33515625 -2.88671875 323.5078125 C-0.09072381 323.82257121 2.56656059 323.94876764 5.375 323.875 C4.570625 322.885 3.76625 321.895 2.9375 320.875 C0.02450381 316.76692845 -0.625 313.91757926 -0.625 308.875 C0.4375 305.625 0.4375 305.625 2.375 302.875 C3.38691406 302.38 4.39882813 301.885 5.44140625 301.375 C8.7082164 298.59103396 8.82820577 298.23037578 9.1796875 294.203125 C9.23517605 292.17770772 9.25575219 290.15116906 9.25 288.125 C9.25849976 287.5738855 9.25849976 287.5738855 9.30151367 284.78491211 C9.3335807 282.27129788 9.35063977 279.75746548 9.35595703 277.24365234 C9.36497166 273.19374228 9.43503739 269.1461646 9.51055908 265.09701538 C9.57460489 261.45206036 9.61789654 257.80705262 9.65606689 254.16174316 C9.67701374 252.34632245 9.70349877 250.53095714 9.73553467 248.71569824 C9.7772052 246.14482047 9.7924006 243.57508063 9.80078125 241.00390625 C9.80950005 240.61538734 9.80950005 240.61538734 9.85362244 238.64924622 C9.8449707 236.47485352 9.8449707 236.47485352 9.375 232.875 C7.34838867 230.86694336 7.34838867 230.86694336 5.375 229.875 Z M88.375 247.875 C87.8125 250.875 87.8125 250.875 88.375 253.875 C90.5 256.375 90.5 256.375 93.375 257.875 C96.94695286 257.17461709 98.79784442 256.45215558 101.375 253.875 C101.84883353 250.24227627 101.8341452 248.52120436 99.6875 245.5 C97.375 243.875 97.375 243.875 94.875 243.375 C91.50486121 244.04902776 90.35822993 245.0837875 88.375 247.875 Z M-88.625 267.875 C-89.08726472 271.11085302 -89.25776496 272.95749081 -87.375 275.6875 C-85.31250526 277.08705 -84.13003771 277.72764484 -81.625 277.875 C-79.38143706 276.72713059 -77.4154233 275.6654233 -75.625 273.875 C-75.22469123 270.27222105 -75.18237493 268.4979538 -77.3125 265.5 C-79.625 263.875 -79.625 263.875 -82.125 263.375 C-85.49513879 264.04902776 -86.64177007 265.0837875 -88.625 267.875 Z M165.375 292.875 C162.77484093 295.38549841 162.40078216 296.67242587 161.9375 300.3125 C162.44264835 304.42585087 163.47961516 305.97961516 166.375 308.875 C169.43929776 310.40714888 171.9915642 310.10438548 175.375 309.875 C178.54114383 308.53818372 179.95874759 307.5561403 181.75 304.625 C182.58101533 300.96853255 182.36201011 298.49403706 181.375 294.875 C178.83470338 292.11696366 176.94362115 291.05269411 173.375 289.9375 C169.69059193 289.8607415 168.25349647 290.61888114 165.375 292.875 Z M-173 307.5625 C-173.97298935 311.16256059 -173.80798798 314.38138052 -172.625 317.875 C-170.24694047 321.10513298 -167.57943776 322.6761588 -163.625 323.5 C-159.42164128 322.62430027 -157.50971945 321.02806544 -154.625 317.875 C-153.344436 313.73199884 -153.34900875 311.64487033 -154.8125 307.5625 C-156.69533612 304.77070852 -157.43513453 303.78639013 -160.625 302.875 C-165.94203446 302.30935804 -169.55469732 303.33417398 -173 307.5625 Z M7.625 306.4375 C5.375 308.875 5.375 308.875 5.25 312.4375 C6.375 315.875 6.375 315.875 8.5625 317.9375 C11.375 318.875 11.375 318.875 14.5625 318.3125 C17.375 316.875 17.375 316.875 18.8125 315.0625 C19.55029881 312.1932824 19.44194546 310.64905821 18.375 307.875 C14.45094496 304.88032642 12.09210722 303.8993709 7.625 306.4375 Z M-1.625 398.875 C-2.37879649 402.05705694 -2.42889864 404.69960036 -1.625 407.875 C1.42546849 411.52068185 3.22651339 412.7138089 7.9375 413.375 C11.66968649 412.83213651 13.55101289 412.37624572 16.375 409.875 C17.89281439 406.31143578 18.61178757 404.00631837 17.8125 400.1875 C15.95136146 397.19349452 14.43319759 395.67002902 11.375 393.875 C5.53214257 392.59761417 1.7561606 393.69759783 -1.625 398.875 Z " fill="#1976D2" transform="translate(256.625,46.125)"/>
</svg>
